<!DOCTYPE svg PUBLIC "-//W3C//DTD SVG 1.1//EN" "http://www.w3.org/Graphics/SVG/1.1/DTD/svg11.dtd">
<!-- Uploaded to: SVG Repo, www.svgrepo.com, Transformed by: SVG Repo Mixer Tools -->
<svg fill="#a78bfa" height="800px" width="800px" version="1.1" id="Layer_1" xmlns="http://www.w3.org/2000/svg" xmlns:xlink="http://www.w3.org/1999/xlink" viewBox="0 0 512 512" xml:space="preserve" stroke="#a78bfa">
<g id="SVGRepo_bgCarrier" stroke-width="0"/>
<g id="SVGRepo_tracerCarrier" stroke-linecap="round" stroke-linejoin="round"/>
<g id="SVGRepo_iconCarrier"> <g> <g> <path d="M502.217,455L377.524,330.308l98.334-32.78c6.815-2.272,11.413-8.652,11.413-15.838c0-7.186-4.598-13.566-11.413-15.837 l-283.326-94.446c-5.989-2.011-12.609-0.456-17.087,4.033c-4.478,4.473-6.033,11.087-4.033,17.082l94.446,283.337 c2.272,6.821,8.652,11.419,15.838,11.419c7.186,0,13.566-4.598,15.837-11.419l32.775-98.334l124.693,124.693 c6.52,6.521,15.064,9.783,23.608,9.783s17.087-3.261,23.609-9.783C515.261,489.179,515.261,468.038,502.217,455z"/> </g> </g> <g> <g> <path d="M66.783,66.783v100.174h74.748c2.462-5.52,5.855-10.685,10.318-15.142c9.424-9.44,22-14.663,35.391-14.663 c5.424,0,10.783,0.875,15.924,2.603l81.602,27.202h160.452V66.783H66.783z"/> </g> </g> <g> <g> <path d="M461.913,0H50.087C22.468,0,0,22.468,0,50.087v133.565c0,27.619,22.468,50.087,50.087,50.087h99.871l-10.219-30.658 c-0.302-0.904-0.456-1.823-0.707-2.734H50.087c-9.206,0-16.696-7.49-16.696-16.696V50.087c0-9.206,7.49-16.696,16.696-16.696 h411.826c9.206,0,16.696,7.49,16.696,16.696v133.565c0,9.206-7.49,16.696-16.696,16.696h-76.976l92.259,30.755 c20.117-6.506,34.804-25.194,34.804-47.45V50.087C512,22.468,489.532,0,461.913,0z"/> </g> </g> </g>
</svg>